# xmcd CD database file
#
# Track frame offsets:
#	150
#	40453
#	81981
#	109109
#	140398
#	180999
#	202050
#	231600
#	257896
#
# Disc length: 3870 seconds
#
# Revision: 0
# Processed by: cddbd v1.5.2PL0 Copyright (c) Steve Scherf et al.
# Submitted via: CDex 1.70beta2
#
DISCID=830f1c09
DTITLE=Beets Brothers - Live in Holland
DYEAR=2002
DGENRE=Jazz
TTITLE0=A Baptist Beat
TTITLE1=Like Someone in Love
TTITLE2=Up-Up
TTITLE3=Body and Soul
TTITLE4=Doxy
TTITLE5=A Foggy Day
TTITLE6=Lover Man
TTITLE7=I Like 'm Fat Like That
TTITLE8=Goodmorning Blues
EXTD=YEAR: 2002
EXTT0=
EXTT1=
EXTT2=
EXTT3=
EXTT4=
EXTT5=
EXTT6=
EXTT7=
EXTT8=
PLAYORDER=
